<svg xmlns="http://www.w3.org/2000/svg" xmlns:xlink="http://www.w3.org/1999/xlink" contentStyleType="text/css" height="695px" preserveAspectRatio="none" style="width:2145px;height:695px;background:#FFFFFF;" version="1.1" viewBox="0 0 2145 695" width="2145px" zoomAndPan="magnify"><defs/><g><!--cluster fef4a200a1f8504bcc43e95a0ca388c8--><g id="cluster_fef4a200a1f8504bcc43e95a0ca388c8"><polygon fill="none" points="282,148.89,292,138.89,931,138.89,931,568.97,921,578.97,282,578.97,282,148.89" style="stroke:#181818;stroke-width:1.0;"/><line style="stroke:#181818;stroke-width:1.0;" x1="921" x2="931" y1="148.89" y2="138.89"/><line style="stroke:#181818;stroke-width:1.0;" x1="282" x2="921" y1="148.89" y2="148.89"/><line style="stroke:#181818;stroke-width:1.0;" x1="921" x2="921" y1="148.89" y2="578.97"/><text fill="#000000" font-family="sans-serif" font-size="14" font-weight="bold" lengthAdjust="spacing" textLength="67" x="569" y="164.8851">Fi_admin</text></g><!--cluster 248f1d236dc5a1a1f729f1a70c484100--><g id="cluster_248f1d236dc5a1a1f729f1a70c484100"><polygon fill="none" points="1594,132.6,1604,122.6,2128,122.6,2128,568.97,2118,578.97,1594,578.97,1594,132.6" style="stroke:#181818;stroke-width:1.0;"/><line style="stroke:#181818;stroke-width:1.0;" x1="2118" x2="2128" y1="132.6" y2="122.6"/><line style="stroke:#181818;stroke-width:1.0;" x1="1594" x2="2118" y1="132.6" y2="132.6"/><line style="stroke:#181818;stroke-width:1.0;" x1="2118" x2="2118" y1="132.6" y2="578.97"/><text fill="#000000" font-family="sans-serif" font-size="14" font-weight="bold" lengthAdjust="spacing" textLength="92" x="1811" y="148.5951">Www-static</text></g><!--cluster 6629f43c74f5034cdaae743080333d7c--><g id="cluster_6629f43c74f5034cdaae743080333d7c"><polygon fill="none" points="971,132.6,981,122.6,1554,122.6,1554,568.97,1544,578.97,971,578.97,971,132.6" style="stroke:#181818;stroke-width:1.0;"/><line style="stroke:#181818;stroke-width:1.0;" x1="1544" x2="1554" y1="132.6" y2="122.6"/><line style="stroke:#181818;stroke-width:1.0;" x1="971" x2="1544" y1="132.6" y2="132.6"/><line style="stroke:#181818;stroke-width:1.0;" x1="1544" x2="1544" y1="132.6" y2="578.97"/><text fill="#000000" font-family="sans-serif" font-size="14" font-weight="bold" lengthAdjust="spacing" textLength="87" x="1215" y="148.5951">Www-docs</text></g><!--cluster 9d3bb895f22bf0afa958d68c2a58ded7--><g id="cluster_9d3bb895f22bf0afa958d68c2a58ded7"><polygon fill="none" points="16,156.89,26,146.89,250,146.89,250,560.97,240,570.97,16,570.97,16,156.89" style="stroke:#181818;stroke-width:1.0;"/><line style="stroke:#181818;stroke-width:1.0;" x1="240" x2="250" y1="156.89" y2="146.89"/><line style="stroke:#181818;stroke-width:1.0;" x1="16" x2="240" y1="156.89" y2="156.89"/><line style="stroke:#181818;stroke-width:1.0;" x1="240" x2="240" y1="156.89" y2="570.97"/><text fill="#000000" font-family="sans-serif" font-size="14" font-weight="bold" lengthAdjust="spacing" textLength="38" x="110" y="172.8851">Cron</text></g><!--entity ec010a3103d203106e85a18083290d7e--><g id="elem_ec010a3103d203106e85a18083290d7e"><rect fill="#F1F1F1" height="111.4844" rx="2.5" ry="2.5" style="stroke:#181818;stroke-width:0.5;" width="203" x="475.5" y="186.89"/><rect fill="#F1F1F1" height="10" style="stroke:#181818;stroke-width:0.5;" width="15" x="658.5" y="191.89"/><rect fill="#F1F1F1" height="2" style="stroke:#181818;stroke-width:0.5;" width="4" x="656.5" y="193.89"/><rect fill="#F1F1F1" height="2" style="stroke:#181818;stroke-width:0.5;" width="4" x="656.5" y="197.89"/><text fill="#000000" font-family="sans-serif" font-size="14" font-weight="bold" lengthAdjust="spacing" textLength="63" x="490.5" y="219.8851">fi-admin</text><text fill="#000000" font-family="sans-serif" font-size="14" lengthAdjust="spacing" textLength="4" x="490.5" y="236.182">&#160;</text><text fill="#000000" font-family="sans-serif" font-size="14" lengthAdjust="spacing" textLength="163" x="490.5" y="252.4789">restart: unless-stopped</text><text fill="#000000" font-family="sans-serif" font-size="14" lengthAdjust="spacing" textLength="158" x="490.5" y="268.7757">image: ${IMAGE_TAG}</text><text fill="#000000" font-family="sans-serif" font-size="14" lengthAdjust="spacing" textLength="4" x="490.5" y="285.0726">&#160;</text></g><!--entity f70979919b00004f410fb46eeb78168f--><g id="elem_f70979919b00004f410fb46eeb78168f"><rect fill="#F1F1F1" height="39.2969" rx="2.5" ry="2.5" style="stroke:#181818;stroke-width:0.5;" width="64" x="306" y="515.68"/><polygon fill="#F1F1F1" points="353,520.68,353,534.68,365,534.68,365,526.68,359,520.68,353,520.68" style="stroke:#181818;stroke-width:0.5;"/><line style="stroke:#181818;stroke-width:0.5;" x1="359" x2="359" y1="520.68" y2="526.68"/><line style="stroke:#181818;stroke-width:0.5;" x1="365" x2="359" y1="526.68" y2="526.68"/><text fill="#000000" font-family="sans-serif" font-size="14" lengthAdjust="spacing" textLength="34" x="316" y="541.6751">/logs</text></g><!--entity d4c3189c5d8c44081dcc2527f11ec597--><g id="elem_d4c3189c5d8c44081dcc2527f11ec597"><rect fill="#F1F1F1" height="39.2969" rx="2.5" ry="2.5" style="stroke:#181818;stroke-width:0.5;" width="121" x="605.5" y="515.68"/><polygon fill="#F1F1F1" points="709.5,520.68,709.5,534.68,721.5,534.68,721.5,526.68,715.5,520.68,709.5,520.68" style="stroke:#181818;stroke-width:0.5;"/><line style="stroke:#181818;stroke-width:0.5;" x1="715.5" x2="715.5" y1="520.68" y2="526.68"/><line style="stroke:#181818;stroke-width:0.5;" x1="721.5" x2="715.5" y1="526.68" y2="526.68"/><text fill="#000000" font-family="sans-serif" font-size="14" lengthAdjust="spacing" textLength="91" x="615.5" y="541.6751">/app/uploads</text></g><!--entity d01ef6bd28de59fc762d51e0a10098a9--><g id="elem_d01ef6bd28de59fc762d51e0a10098a9"><rect fill="#F1F1F1" height="39.2969" rx="2.5" ry="2.5" style="stroke:#181818;stroke-width:0.5;" width="165" x="405.5" y="515.68"/><polygon fill="#F1F1F1" points="553.5,520.68,553.5,534.68,565.5,534.68,565.5,526.68,559.5,520.68,553.5,520.68" style="stroke:#181818;stroke-width:0.5;"/><line style="stroke:#181818;stroke-width:0.5;" x1="559.5" x2="559.5" y1="520.68" y2="526.68"/><line style="stroke:#181818;stroke-width:0.5;" x1="565.5" x2="559.5" y1="526.68" y2="526.68"/><text fill="#000000" font-family="sans-serif" font-size="14" lengthAdjust="spacing" textLength="135" x="415.5" y="541.6751">/app/fixtures/import</text></g><!--entity 51c861629fb05052e932cb94937f6418--><g id="elem_51c861629fb05052e932cb94937f6418"><rect fill="#F1F1F1" height="39.2969" rx="2.5" ry="2.5" style="stroke:#181818;stroke-width:0.5;" width="137" x="761.5" y="515.68"/><polygon fill="#F1F1F1" points="881.5,520.68,881.5,534.68,893.5,534.68,893.5,526.68,887.5,520.68,881.5,520.68" style="stroke:#181818;stroke-width:0.5;"/><line style="stroke:#181818;stroke-width:0.5;" x1="887.5" x2="887.5" y1="520.68" y2="526.68"/><line style="stroke:#181818;stroke-width:0.5;" x1="893.5" x2="887.5" y1="526.68" y2="526.68"/><text fill="#000000" font-family="sans-serif" font-size="14" lengthAdjust="spacing" textLength="107" x="771.5" y="541.6751">/app/static_files</text></g><!--entity 604b41fa9efeddea8560d5013ce7f4ed--><g id="elem_604b41fa9efeddea8560d5013ce7f4ed"><rect fill="#F1F1F1" height="144.0781" rx="2.5" ry="2.5" style="stroke:#181818;stroke-width:0.5;" width="467" x="1617.5" y="170.6"/><rect fill="#F1F1F1" height="10" style="stroke:#181818;stroke-width:0.5;" width="15" x="2064.5" y="175.6"/><rect fill="#F1F1F1" height="2" style="stroke:#181818;stroke-width:0.5;" width="4" x="2062.5" y="177.6"/><rect fill="#F1F1F1" height="2" style="stroke:#181818;stroke-width:0.5;" width="4" x="2062.5" y="181.6"/><text fill="#000000" font-family="sans-serif" font-size="14" font-weight="bold" lengthAdjust="spacing" textLength="160" x="1632.5" y="203.5951">fi-admin-www-static</text><text fill="#000000" font-family="sans-serif" font-size="14" lengthAdjust="spacing" textLength="4" x="1632.5" y="219.892">&#160;</text><text fill="#000000" font-family="sans-serif" font-size="14" lengthAdjust="spacing" textLength="163" x="1632.5" y="236.1889">restart: unless-stopped</text><text fill="#000000" font-family="sans-serif" font-size="14" lengthAdjust="spacing" textLength="170" x="1632.5" y="252.4857">image: nginx:1.18-alpine</text><text fill="#000000" font-family="sans-serif" font-size="14" lengthAdjust="spacing" textLength="341" x="1632.5" y="268.7826">environment: VIRTUAL_HOST=${VIRTUAL_HOST}</text><text fill="#000000" font-family="sans-serif" font-size="14" lengthAdjust="spacing" textLength="427" x="1632.5" y="285.0795">environment: LETSENCRYPT_HOST=${LETSENCRYPT_HOST}</text><text fill="#000000" font-family="sans-serif" font-size="14" lengthAdjust="spacing" textLength="4" x="1632.5" y="301.3764">&#160;</text></g><!--entity e18996e5bfa20a08d96f4ce1aa5ea480--><g id="elem_e18996e5bfa20a08d96f4ce1aa5ea480"><rect fill="#F1F1F1" height="39.2969" rx="2.5" ry="2.5" style="stroke:#181818;stroke-width:0.5;" width="147" x="1790.5" y="515.68"/><polygon fill="#F1F1F1" points="1920.5,520.68,1920.5,534.68,1932.5,534.68,1932.5,526.68,1926.5,520.68,1920.5,520.68" style="stroke:#181818;stroke-width:0.5;"/><line style="stroke:#181818;stroke-width:0.5;" x1="1926.5" x2="1926.5" y1="520.68" y2="526.68"/><line style="stroke:#181818;stroke-width:0.5;" x1="1932.5" x2="1926.5" y1="526.68" y2="526.68"/><text fill="#000000" font-family="sans-serif" font-size="14" lengthAdjust="spacing" textLength="117" x="1800.5" y="541.6751">/etc/nginx/conf.d</text></g><!--entity 3e45dfba234f87c5891e59182bac20d1--><g id="elem_3e45dfba234f87c5891e59182bac20d1"><rect fill="#F1F1F1" height="39.2969" rx="2.5" ry="2.5" style="stroke:#181818;stroke-width:0.5;" width="137" x="1618.5" y="515.68"/><polygon fill="#F1F1F1" points="1738.5,520.68,1738.5,534.68,1750.5,534.68,1750.5,526.68,1744.5,520.68,1738.5,520.68" style="stroke:#181818;stroke-width:0.5;"/><line style="stroke:#181818;stroke-width:0.5;" x1="1744.5" x2="1744.5" y1="520.68" y2="526.68"/><line style="stroke:#181818;stroke-width:0.5;" x1="1750.5" x2="1744.5" y1="526.68" y2="526.68"/><text fill="#000000" font-family="sans-serif" font-size="14" lengthAdjust="spacing" textLength="107" x="1628.5" y="541.6751">/app/static_files</text></g><!--entity 93cb8ac5c65c94e8d0595868c12f53fc--><g id="elem_93cb8ac5c65c94e8d0595868c12f53fc"><rect fill="#F1F1F1" height="144.0781" rx="2.5" ry="2.5" style="stroke:#181818;stroke-width:0.5;" width="515" x="995.5" y="170.6"/><rect fill="#F1F1F1" height="10" style="stroke:#181818;stroke-width:0.5;" width="15" x="1490.5" y="175.6"/><rect fill="#F1F1F1" height="2" style="stroke:#181818;stroke-width:0.5;" width="4" x="1488.5" y="177.6"/><rect fill="#F1F1F1" height="2" style="stroke:#181818;stroke-width:0.5;" width="4" x="1488.5" y="181.6"/><text fill="#000000" font-family="sans-serif" font-size="14" font-weight="bold" lengthAdjust="spacing" textLength="155" x="1010.5" y="203.5951">fi-admin-www-docs</text><text fill="#000000" font-family="sans-serif" font-size="14" lengthAdjust="spacing" textLength="4" x="1010.5" y="219.892">&#160;</text><text fill="#000000" font-family="sans-serif" font-size="14" lengthAdjust="spacing" textLength="163" x="1010.5" y="236.1889">restart: unless-stopped</text><text fill="#000000" font-family="sans-serif" font-size="14" lengthAdjust="spacing" textLength="170" x="1010.5" y="252.4857">image: nginx:1.18-alpine</text><text fill="#000000" font-family="sans-serif" font-size="14" lengthAdjust="spacing" textLength="389" x="1010.5" y="268.7826">environment: VIRTUAL_HOST=${VIRTUAL_HOST_DOCS}</text><text fill="#000000" font-family="sans-serif" font-size="14" lengthAdjust="spacing" textLength="475" x="1010.5" y="285.0795">environment: LETSENCRYPT_HOST=${LETSENCRYPT_HOST_DOCS}</text><text fill="#000000" font-family="sans-serif" font-size="14" lengthAdjust="spacing" textLength="4" x="1010.5" y="301.3764">&#160;</text></g><!--entity b70b855f109a1da929126ca3a3591aec--><g id="elem_b70b855f109a1da929126ca3a3591aec"><rect fill="#F1F1F1" height="39.2969" rx="2.5" ry="2.5" style="stroke:#181818;stroke-width:0.5;" width="147" x="1179.5" y="515.68"/><polygon fill="#F1F1F1" points="1309.5,520.68,1309.5,534.68,1321.5,534.68,1321.5,526.68,1315.5,520.68,1309.5,520.68" style="stroke:#181818;stroke-width:0.5;"/><line style="stroke:#181818;stroke-width:0.5;" x1="1315.5" x2="1315.5" y1="520.68" y2="526.68"/><line style="stroke:#181818;stroke-width:0.5;" x1="1321.5" x2="1315.5" y1="526.68" y2="526.68"/><text fill="#000000" font-family="sans-serif" font-size="14" lengthAdjust="spacing" textLength="117" x="1189.5" y="541.6751">/etc/nginx/conf.d</text></g><!--entity 913a3e3ebebd59eca7434904d36c2163--><g id="elem_913a3e3ebebd59eca7434904d36c2163"><rect fill="#F1F1F1" height="39.2969" rx="2.5" ry="2.5" style="stroke:#181818;stroke-width:0.5;" width="121" x="1009.5" y="515.68"/><polygon fill="#F1F1F1" points="1113.5,520.68,1113.5,534.68,1125.5,534.68,1125.5,526.68,1119.5,520.68,1113.5,520.68" style="stroke:#181818;stroke-width:0.5;"/><line style="stroke:#181818;stroke-width:0.5;" x1="1119.5" x2="1119.5" y1="520.68" y2="526.68"/><line style="stroke:#181818;stroke-width:0.5;" x1="1125.5" x2="1119.5" y1="526.68" y2="526.68"/><text fill="#000000" font-family="sans-serif" font-size="14" lengthAdjust="spacing" textLength="91" x="1019.5" y="541.6751">/app/uploads</text></g><!--entity 0d6f281ddb80fb9bcef56bc780597b92--><g id="elem_0d6f281ddb80fb9bcef56bc780597b92"><rect fill="#F1F1F1" height="111.4844" rx="2.5" ry="2.5" style="stroke:#181818;stroke-width:0.5;" width="203" x="31.5" y="186.89"/><rect fill="#F1F1F1" height="10" style="stroke:#181818;stroke-width:0.5;" width="15" x="214.5" y="191.89"/><rect fill="#F1F1F1" height="2" style="stroke:#181818;stroke-width:0.5;" width="4" x="212.5" y="193.89"/><rect fill="#F1F1F1" height="2" style="stroke:#181818;stroke-width:0.5;" width="4" x="212.5" y="197.89"/><text fill="#000000" font-family="sans-serif" font-size="14" font-weight="bold" lengthAdjust="spacing" textLength="105" x="46.5" y="219.8851">fi-admin-cron</text><text fill="#000000" font-family="sans-serif" font-size="14" lengthAdjust="spacing" textLength="4" x="46.5" y="236.182">&#160;</text><text fill="#000000" font-family="sans-serif" font-size="14" lengthAdjust="spacing" textLength="163" x="46.5" y="252.4789">restart: unless-stopped</text><text fill="#000000" font-family="sans-serif" font-size="14" lengthAdjust="spacing" textLength="158" x="46.5" y="268.7757">image: ${IMAGE_TAG}</text><text fill="#000000" font-family="sans-serif" font-size="14" lengthAdjust="spacing" textLength="4" x="46.5" y="285.0726">&#160;</text></g><!--entity 2ff75d28e455b9e0d46064489afe9575--><g id="elem_2ff75d28e455b9e0d46064489afe9575"><rect fill="#F1F1F1" height="39.2969" rx="2.5" ry="2.5" style="stroke:#181818;stroke-width:0.5;" width="64" x="136" y="515.68"/><polygon fill="#F1F1F1" points="183,520.68,183,534.68,195,534.68,195,526.68,189,520.68,183,520.68" style="stroke:#181818;stroke-width:0.5;"/><line style="stroke:#181818;stroke-width:0.5;" x1="189" x2="189" y1="520.68" y2="526.68"/><line style="stroke:#181818;stroke-width:0.5;" x1="195" x2="189" y1="526.68" y2="526.68"/><text fill="#000000" font-family="sans-serif" font-size="14" lengthAdjust="spacing" textLength="34" x="146" y="541.6751">/logs</text></g><!--entity ad03a9b586029eae7b1450eb5830d726--><g id="elem_ad03a9b586029eae7b1450eb5830d726"><polygon fill="#F1F1F1" points="1479,16,1489,6,1613,6,1613,58.5938,1603,68.5938,1479,68.5938,1479,16" style="stroke:#181818;stroke-width:0.5;"/><line style="stroke:#181818;stroke-width:0.5;" x1="1603" x2="1613" y1="16" y2="6"/><line style="stroke:#181818;stroke-width:0.5;" x1="1479" x2="1603" y1="16" y2="16"/><line style="stroke:#181818;stroke-width:0.5;" x1="1603" x2="1603" y1="16" y2="68.5938"/><text fill="#000000" font-family="sans-serif" font-size="14" font-weight="bold" lengthAdjust="spacing" textLength="94" x="1494" y="38.9951">nginx-proxy</text><text fill="#000000" font-family="sans-serif" font-size="14" lengthAdjust="spacing" textLength="74" x="1494" y="55.292">&#171;network&#187;</text></g><!--entity 76be2b73eecc82b2515107b6027d6dfe--><g id="elem_76be2b73eecc82b2515107b6027d6dfe"><rect fill="#F1F1F1" height="39.2969" rx="2.5" ry="2.5" style="stroke:#181818;stroke-width:0.5;" width="130" x="209" y="649.97"/><polygon fill="#F1F1F1" points="322,654.97,322,668.97,334,668.97,334,660.97,328,654.97,322,654.97" style="stroke:#181818;stroke-width:0.5;"/><line style="stroke:#181818;stroke-width:0.5;" x1="328" x2="328" y1="654.97" y2="660.97"/><line style="stroke:#181818;stroke-width:0.5;" x1="334" x2="328" y1="660.97" y2="660.97"/><text fill="#000000" font-family="sans-serif" font-size="14" lengthAdjust="spacing" textLength="100" x="219" y="675.9651">${LOG_PATH}</text></g><!--entity 53621bc2e92c2b4535dea4a45d198648--><g id="elem_53621bc2e92c2b4535dea4a45d198648"><rect fill="#F1F1F1" height="39.2969" rx="2.5" ry="2.5" style="stroke:#181818;stroke-width:0.5;" width="158" x="801" y="649.97"/><polygon fill="#F1F1F1" points="942,654.97,942,668.97,954,668.97,954,660.97,948,654.97,942,654.97" style="stroke:#181818;stroke-width:0.5;"/><line style="stroke:#181818;stroke-width:0.5;" x1="948" x2="948" y1="654.97" y2="660.97"/><line style="stroke:#181818;stroke-width:0.5;" x1="954" x2="948" y1="660.97" y2="660.97"/><text fill="#000000" font-family="sans-serif" font-size="14" lengthAdjust="spacing" textLength="128" x="811" y="675.9651">${UPLOAD_PATH}</text></g><!--entity 9a3452126ee841dcf2ff4ff9ad857c77--><g id="elem_9a3452126ee841dcf2ff4ff9ad857c77"><rect fill="#F1F1F1" height="39.2969" rx="2.5" ry="2.5" style="stroke:#181818;stroke-width:0.5;" width="196" x="390" y="649.97"/><polygon fill="#F1F1F1" points="569,654.97,569,668.97,581,668.97,581,660.97,575,654.97,569,654.97" style="stroke:#181818;stroke-width:0.5;"/><line style="stroke:#181818;stroke-width:0.5;" x1="575" x2="575" y1="654.97" y2="660.97"/><line style="stroke:#181818;stroke-width:0.5;" x1="581" x2="575" y1="660.97" y2="660.97"/><text fill="#000000" font-family="sans-serif" font-size="14" lengthAdjust="spacing" textLength="166" x="400" y="675.9651">./bireme/fixtures/import/</text></g><!--entity 518687ee6664c16681e6ea27471a3138--><g id="elem_518687ee6664c16681e6ea27471a3138"><rect fill="#F1F1F1" height="39.2969" rx="2.5" ry="2.5" style="stroke:#181818;stroke-width:0.5;" width="101" x="1431.5" y="649.97"/><polygon fill="#F1F1F1" points="1515.5,654.97,1515.5,668.97,1527.5,668.97,1527.5,660.97,1521.5,654.97,1515.5,654.97" style="stroke:#181818;stroke-width:0.5;"/><line style="stroke:#181818;stroke-width:0.5;" x1="1521.5" x2="1521.5" y1="654.97" y2="660.97"/><line style="stroke:#181818;stroke-width:0.5;" x1="1527.5" x2="1521.5" y1="660.97" y2="660.97"/><text fill="#000000" font-family="sans-serif" font-size="14" lengthAdjust="spacing" textLength="71" x="1441.5" y="675.9651">static_files</text></g><!--entity d5a7110945fa53f2ed4e39e131efbca3--><g id="elem_d5a7110945fa53f2ed4e39e131efbca3"><rect fill="#F1F1F1" height="39.2969" rx="2.5" ry="2.5" style="stroke:#181818;stroke-width:0.5;" width="142" x="1793" y="649.97"/><polygon fill="#F1F1F1" points="1918,654.97,1918,668.97,1930,668.97,1930,660.97,1924,654.97,1918,654.97" style="stroke:#181818;stroke-width:0.5;"/><line style="stroke:#181818;stroke-width:0.5;" x1="1924" x2="1924" y1="654.97" y2="660.97"/><line style="stroke:#181818;stroke-width:0.5;" x1="1930" x2="1924" y1="660.97" y2="660.97"/><text fill="#000000" font-family="sans-serif" font-size="14" lengthAdjust="spacing" textLength="112" x="1803" y="675.9651">./conf/nginx/app</text></g><!--entity 1829c14310c53c5ab723caa8a7ce7aae--><g id="elem_1829c14310c53c5ab723caa8a7ce7aae"><rect fill="#F1F1F1" height="39.2969" rx="2.5" ry="2.5" style="stroke:#181818;stroke-width:0.5;" width="150" x="1178" y="649.97"/><polygon fill="#F1F1F1" points="1311,654.97,1311,668.97,1323,668.97,1323,660.97,1317,654.97,1311,654.97" style="stroke:#181818;stroke-width:0.5;"/><line style="stroke:#181818;stroke-width:0.5;" x1="1317" x2="1317" y1="654.97" y2="660.97"/><line style="stroke:#181818;stroke-width:0.5;" x1="1323" x2="1317" y1="660.97" y2="660.97"/><text fill="#000000" font-family="sans-serif" font-size="14" lengthAdjust="spacing" textLength="120" x="1188" y="675.9651">./conf/nginx/docs</text></g><!--link f70979919b00004f410fb46eeb78168f to 76be2b73eecc82b2515107b6027d6dfe--><g id="link_f70979919b00004f410fb46eeb78168f_76be2b73eecc82b2515107b6027d6dfe"><path codeLine="58" d="M328.83,555.28 C316.66,580.43 295.31,624.57 283.15,649.7 " fill="none" id="f70979919b00004f410fb46eeb78168f-76be2b73eecc82b2515107b6027d6dfe" style="stroke:#181818;stroke-width:1.0;"/><text fill="#000000" font-family="sans-serif" font-size="13" lengthAdjust="spacing" textLength="14" x="305" y="616.0369">rw</text></g><!--link ec010a3103d203106e85a18083290d7e to f70979919b00004f410fb46eeb78168f--><g id="link_ec010a3103d203106e85a18083290d7e_f70979919b00004f410fb46eeb78168f"><path codeLine="59" d="M531.76,298.66 C477.5,364.66 393.1912,467.2059 357.5312,510.5659 " fill="none" id="ec010a3103d203106e85a18083290d7e-to-f70979919b00004f410fb46eeb78168f" style="stroke:#181818;stroke-width:1.0;stroke-dasharray:7.0,7.0;"/><polygon fill="#181818" points="353.72,515.2,362.5262,510.7896,356.896,511.3382,356.3473,505.7081,353.72,515.2" style="stroke:#181818;stroke-width:1.0;"/><text fill="#000000" font-family="sans-serif" font-size="13" lengthAdjust="spacing" textLength="23" x="443" y="419.7469">use</text></g><!--link d4c3189c5d8c44081dcc2527f11ec597 to 53621bc2e92c2b4535dea4a45d198648--><g id="link_d4c3189c5d8c44081dcc2527f11ec597_53621bc2e92c2b4535dea4a45d198648"><path codeLine="60" d="M689.24,555.23 C704.42,567.22 724.89,582.71 744,594.97 C775.75,615.35 813.61,635.54 841.32,649.62 " fill="none" id="d4c3189c5d8c44081dcc2527f11ec597-53621bc2e92c2b4535dea4a45d198648" style="stroke:#181818;stroke-width:1.0;"/><text fill="#000000" font-family="sans-serif" font-size="13" lengthAdjust="spacing" textLength="14" x="785" y="616.0369">rw</text></g><!--link ec010a3103d203106e85a18083290d7e to d4c3189c5d8c44081dcc2527f11ec597--><g id="link_ec010a3103d203106e85a18083290d7e_d4c3189c5d8c44081dcc2527f11ec597"><path codeLine="61" d="M593.84,298.66 C614.05,364.66 645.1129,466.103 658.3929,509.463 " fill="none" id="ec010a3103d203106e85a18083290d7e-to-d4c3189c5d8c44081dcc2527f11ec597" style="stroke:#181818;stroke-width:1.0;stroke-dasharray:7.0,7.0;"/><polygon fill="#181818" points="660.15,515.2,661.339,505.4232,658.6858,510.4192,653.6897,507.7659,660.15,515.2" style="stroke:#181818;stroke-width:1.0;"/><text fill="#000000" font-family="sans-serif" font-size="13" lengthAdjust="spacing" textLength="23" x="632" y="419.7469">use</text></g><!--link d01ef6bd28de59fc762d51e0a10098a9 to 9a3452126ee841dcf2ff4ff9ad857c77--><g id="link_d01ef6bd28de59fc762d51e0a10098a9_9a3452126ee841dcf2ff4ff9ad857c77"><path codeLine="62" d="M488,555.28 C488,580.43 488,624.57 488,649.7 " fill="none" id="d01ef6bd28de59fc762d51e0a10098a9-9a3452126ee841dcf2ff4ff9ad857c77" style="stroke:#181818;stroke-width:1.0;"/><text fill="#000000" font-family="sans-serif" font-size="13" lengthAdjust="spacing" textLength="14" x="489" y="616.0369">rw</text></g><!--link ec010a3103d203106e85a18083290d7e to d01ef6bd28de59fc762d51e0a10098a9--><g id="link_ec010a3103d203106e85a18083290d7e_d01ef6bd28de59fc762d51e0a10098a9"><path codeLine="63" d="M560.16,298.66 C539.95,364.66 508.8871,466.103 495.6071,509.463 " fill="none" id="ec010a3103d203106e85a18083290d7e-to-d01ef6bd28de59fc762d51e0a10098a9" style="stroke:#181818;stroke-width:1.0;stroke-dasharray:7.0,7.0;"/><polygon fill="#181818" points="493.85,515.2,500.3103,507.7659,495.3142,510.4192,492.661,505.4232,493.85,515.2" style="stroke:#181818;stroke-width:1.0;"/><text fill="#000000" font-family="sans-serif" font-size="13" lengthAdjust="spacing" textLength="23" x="527" y="419.7469">use</text></g><!--link 51c861629fb05052e932cb94937f6418 to 518687ee6664c16681e6ea27471a3138--><g id="link_51c861629fb05052e932cb94937f6418_518687ee6664c16681e6ea27471a3138"><path codeLine="64" d="M845.4,555.21 C863.01,575.27 893.85,605.97 928,619.97 C1013.96,655.23 1252.59,640.37 1345,649.97 C1373.53,652.94 1405.28,657.2 1431.02,660.9 " fill="none" id="51c861629fb05052e932cb94937f6418-518687ee6664c16681e6ea27471a3138" style="stroke:#181818;stroke-width:1.0;"/><text fill="#000000" font-family="sans-serif" font-size="13" lengthAdjust="spacing" textLength="14" x="929" y="616.0369">rw</text></g><!--link ec010a3103d203106e85a18083290d7e to 51c861629fb05052e932cb94937f6418--><g id="link_ec010a3103d203106e85a18083290d7e_51c861629fb05052e932cb94937f6418"><path codeLine="65" d="M624.88,298.66 C682.33,364.66 771.6702,467.3147 809.4202,510.6747 " fill="none" id="ec010a3103d203106e85a18083290d7e-to-51c861629fb05052e932cb94937f6418" style="stroke:#181818;stroke-width:1.0;stroke-dasharray:7.0,7.0;"/><polygon fill="#181818" points="813.36,515.2,810.4672,505.7856,810.0768,511.4289,804.4335,511.0386,813.36,515.2" style="stroke:#181818;stroke-width:1.0;"/><text fill="#000000" font-family="sans-serif" font-size="13" lengthAdjust="spacing" textLength="23" x="734" y="419.7469">use</text></g><!--reverse link ad03a9b586029eae7b1450eb5830d726 to fef4a200a1f8504bcc43e95a0ca388c8--><g id="link_ad03a9b586029eae7b1450eb5830d726_fef4a200a1f8504bcc43e95a0ca388c8"><path codeLine="66" d="M1472.6502,38.1738 C1339.8002,39.1438 1056.18,48.08 979,106.6 C953.52,125.92 939.555,158.935 931.9425,187.4838 C931.7046,188.3759 931.4729,189.2637 931.2473,190.1466 C931.1909,190.3673 931.1348,190.5877 931.0792,190.8078 " fill="none" id="ad03a9b586029eae7b1450eb5830d726-backto-fef4a200a1f8504bcc43e95a0ca388c8" style="stroke:#181818;stroke-width:1.0;"/><polygon fill="#181818" points="1478.65,38.13,1469.621,34.1958,1473.6501,38.1665,1469.6794,42.1956,1478.65,38.13" style="stroke:#181818;stroke-width:1.0;"/></g><!--link e18996e5bfa20a08d96f4ce1aa5ea480 to d5a7110945fa53f2ed4e39e131efbca3--><g id="link_e18996e5bfa20a08d96f4ce1aa5ea480_d5a7110945fa53f2ed4e39e131efbca3"><path codeLine="67" d="M1864,555.28 C1864,580.43 1864,624.57 1864,649.7 " fill="none" id="e18996e5bfa20a08d96f4ce1aa5ea480-d5a7110945fa53f2ed4e39e131efbca3" style="stroke:#181818;stroke-width:1.0;"/><text fill="#000000" font-family="sans-serif" font-size="13" lengthAdjust="spacing" textLength="14" x="1865" y="616.0369">rw</text></g><!--link 604b41fa9efeddea8560d5013ce7f4ed to e18996e5bfa20a08d96f4ce1aa5ea480--><g id="link_604b41fa9efeddea8560d5013ce7f4ed_e18996e5bfa20a08d96f4ce1aa5ea480"><path codeLine="68" d="M1854.2,315.12 C1857.16,381.35 1861.1023,469.466 1862.8823,509.326 " fill="none" id="604b41fa9efeddea8560d5013ce7f4ed-to-e18996e5bfa20a08d96f4ce1aa5ea480" style="stroke:#181818;stroke-width:1.0;stroke-dasharray:7.0,7.0;"/><polygon fill="#181818" points="1863.15,515.32,1866.7445,506.1505,1862.9269,510.325,1858.7525,506.5074,1863.15,515.32" style="stroke:#181818;stroke-width:1.0;"/><text fill="#000000" font-family="sans-serif" font-size="13" lengthAdjust="spacing" textLength="23" x="1860" y="419.7469">use</text></g><!--link 3e45dfba234f87c5891e59182bac20d1 to 518687ee6664c16681e6ea27471a3138--><g id="link_3e45dfba234f87c5891e59182bac20d1_518687ee6664c16681e6ea27471a3138"><path codeLine="69" d="M1657.63,555.28 C1618.77,580.36 1550.65,624.32 1511.65,649.49 " fill="none" id="3e45dfba234f87c5891e59182bac20d1-518687ee6664c16681e6ea27471a3138" style="stroke:#181818;stroke-width:1.0;"/><text fill="#000000" font-family="sans-serif" font-size="13" lengthAdjust="spacing" textLength="14" x="1579" y="616.0369">rw</text></g><!--link 604b41fa9efeddea8560d5013ce7f4ed to 3e45dfba234f87c5891e59182bac20d1--><g id="link_604b41fa9efeddea8560d5013ce7f4ed_3e45dfba234f87c5891e59182bac20d1"><path codeLine="70" d="M1810.67,315.12 C1773.3,381.35 1723.1584,470.2344 1700.6684,510.0944 " fill="none" id="604b41fa9efeddea8560d5013ce7f4ed-to-3e45dfba234f87c5891e59182bac20d1" style="stroke:#181818;stroke-width:1.0;stroke-dasharray:7.0,7.0;"/><polygon fill="#181818" points="1697.72,515.32,1705.6263,509.4472,1700.177,510.9653,1698.6589,505.516,1697.72,515.32" style="stroke:#181818;stroke-width:1.0;"/><text fill="#000000" font-family="sans-serif" font-size="13" lengthAdjust="spacing" textLength="23" x="1759" y="419.7469">use</text></g><!--reverse link ad03a9b586029eae7b1450eb5830d726 to 248f1d236dc5a1a1f729f1a70c484100--><g id="link_ad03a9b586029eae7b1450eb5830d726_248f1d236dc5a1a1f729f1a70c484100"><path codeLine="71" d="M1619.389,42.4535 C1759.419,50.9535 2065.69,73.12 2100,106.6 C2102.6713,109.2069 2105.0895,112.0041 2107.2759,114.9584 C2108.369,116.4355 2109.4042,117.9519 2110.384,119.5035 C2110.8739,120.2792 2111.35,121.0638 2111.8125,121.8565 C2111.9282,122.0547 2112.043,122.2535 2112.1569,122.4527 " fill="none" id="ad03a9b586029eae7b1450eb5830d726-backto-248f1d236dc5a1a1f729f1a70c484100" style="stroke:#181818;stroke-width:1.0;"/><polygon fill="#181818" points="1613.4,42.09,1622.1411,46.628,1618.3908,42.3929,1622.6258,38.6427,1613.4,42.09" style="stroke:#181818;stroke-width:1.0;"/></g><!--link b70b855f109a1da929126ca3a3591aec to 1829c14310c53c5ab723caa8a7ce7aae--><g id="link_b70b855f109a1da929126ca3a3591aec_1829c14310c53c5ab723caa8a7ce7aae"><path codeLine="72" d="M1253,555.28 C1253,580.43 1253,624.57 1253,649.7 " fill="none" id="b70b855f109a1da929126ca3a3591aec-1829c14310c53c5ab723caa8a7ce7aae" style="stroke:#181818;stroke-width:1.0;"/><text fill="#000000" font-family="sans-serif" font-size="13" lengthAdjust="spacing" textLength="14" x="1254" y="616.0369">rw</text></g><!--link 93cb8ac5c65c94e8d0595868c12f53fc to b70b855f109a1da929126ca3a3591aec--><g id="link_93cb8ac5c65c94e8d0595868c12f53fc_b70b855f109a1da929126ca3a3591aec"><path codeLine="73" d="M1253,315.12 C1253,381.35 1253,469.46 1253,509.32 " fill="none" id="93cb8ac5c65c94e8d0595868c12f53fc-to-b70b855f109a1da929126ca3a3591aec" style="stroke:#181818;stroke-width:1.0;stroke-dasharray:7.0,7.0;"/><polygon fill="#181818" points="1253,515.32,1257,506.32,1253,510.32,1249,506.32,1253,515.32" style="stroke:#181818;stroke-width:1.0;"/><text fill="#000000" font-family="sans-serif" font-size="13" lengthAdjust="spacing" textLength="23" x="1254" y="419.7469">use</text></g><!--link 913a3e3ebebd59eca7434904d36c2163 to 53621bc2e92c2b4535dea4a45d198648--><g id="link_913a3e3ebebd59eca7434904d36c2163_53621bc2e92c2b4535dea4a45d198648"><path codeLine="74" d="M1042.78,555.28 C1006.76,580.36 943.63,624.32 907.48,649.49 " fill="none" id="913a3e3ebebd59eca7434904d36c2163-53621bc2e92c2b4535dea4a45d198648" style="stroke:#181818;stroke-width:1.0;"/><text fill="#000000" font-family="sans-serif" font-size="13" lengthAdjust="spacing" textLength="14" x="970" y="616.0369">rw</text></g><!--link 93cb8ac5c65c94e8d0595868c12f53fc to 913a3e3ebebd59eca7434904d36c2163--><g id="link_93cb8ac5c65c94e8d0595868c12f53fc_913a3e3ebebd59eca7434904d36c2163"><path codeLine="75" d="M1208,315.12 C1166.3,381.35 1110.2562,470.3822 1085.1662,510.2422 " fill="none" id="93cb8ac5c65c94e8d0595868c12f53fc-to-913a3e3ebebd59eca7434904d36c2163" style="stroke:#181818;stroke-width:1.0;stroke-dasharray:7.0,7.0;"/><polygon fill="#181818" points="1081.97,515.32,1090.1496,509.8341,1084.6335,511.0885,1083.3792,505.5725,1081.97,515.32" style="stroke:#181818;stroke-width:1.0;"/><text fill="#000000" font-family="sans-serif" font-size="13" lengthAdjust="spacing" textLength="23" x="1150" y="419.7469">use</text></g><!--reverse link ad03a9b586029eae7b1450eb5830d726 to 6629f43c74f5034cdaae743080333d7c--><g id="link_ad03a9b586029eae7b1450eb5830d726_6629f43c74f5034cdaae743080333d7c"><path codeLine="76" d="M1546,74.74 C1546,88.7 1546,100.26 1546,118.8027 C1546,119.9616 1546,121.1243 1546,122.2903 " fill="none" id="ad03a9b586029eae7b1450eb5830d726-backto-6629f43c74f5034cdaae743080333d7c" style="stroke:#181818;stroke-width:1.0;"/><polygon fill="#181818" points="1546,68.74,1542,77.74,1546,73.74,1550,77.74,1546,68.74" style="stroke:#181818;stroke-width:1.0;"/></g><!--link 2ff75d28e455b9e0d46064489afe9575 to 76be2b73eecc82b2515107b6027d6dfe--><g id="link_2ff75d28e455b9e0d46064489afe9575_76be2b73eecc82b2515107b6027d6dfe"><path codeLine="77" d="M183.19,555.28 C203.34,580.43 238.7,624.57 258.84,649.7 " fill="none" id="2ff75d28e455b9e0d46064489afe9575-76be2b73eecc82b2515107b6027d6dfe" style="stroke:#181818;stroke-width:1.0;"/><text fill="#000000" font-family="sans-serif" font-size="13" lengthAdjust="spacing" textLength="14" x="234" y="616.0369">rw</text></g><!--link 0d6f281ddb80fb9bcef56bc780597b92 to 2ff75d28e455b9e0d46064489afe9575--><g id="link_0d6f281ddb80fb9bcef56bc780597b92_2ff75d28e455b9e0d46064489afe9575"><path codeLine="78" d="M139.62,298.66 C147.57,364.66 159.7629,465.883 164.9829,509.243 " fill="none" id="0d6f281ddb80fb9bcef56bc780597b92-to-2ff75d28e455b9e0d46064489afe9575" style="stroke:#181818;stroke-width:1.0;stroke-dasharray:7.0,7.0;"/><polygon fill="#181818" points="165.7,515.2,168.5956,505.7864,165.1024,510.2358,160.653,506.7426,165.7,515.2" style="stroke:#181818;stroke-width:1.0;"/><text fill="#000000" font-family="sans-serif" font-size="13" lengthAdjust="spacing" textLength="23" x="155" y="419.7469">use</text></g><!--SRC=[jLRRQYD747sVhnZ4FWaazVrYDWRZTRmBJcpMseIG1D5TNMs6I2CXoIi7utzFMHV7SYujGQANGSDKrpbrgavr68-dgqdpqBHtLJjDM7UwtVQkQHzwi_dquVTkzvVs_ViMbwlf_BVJqquT5dL8J0OVjJDCU0ne8rUQ8RsGB5bXjkTysun2cZJjEYPZLa4m5dXscga8e2Hw7HW4wHou-h6gOJgPJLjibpK2uon8pcGIZ1u6dGxSCIU5fnHO_rnrkxdfhS_lTgjgZejbc2zFwljsZ8j5Rx6SpcQOgcOIxl2aVlVuwRkpoulHyEpogQf-hUZJ9WTOrft1U7gts22qp5llkO-CVYehpd9K1Z5QnutBhuF2R3Qudusd8MrYamB9dGUT72Z574y0GWkREKVGthwDpSt3yfum3nfYF5zkpc0Siub9k8JQPx169CsHAiQOTy6_FOC8BniOvOO8hm_G79pXHlWScMPQe9S2ebTUscmKTzNJLfWVLwlU9deT9vJBF0bf4b2HII1BH_1W6IX7HM3xqXWIJ_4SF6PC2OFJXYNDk0IqMM7QawQtUabrW4hhjZlXVUvwOJnhMgom_ThCf-s44f_KFtpwFFnoTZNwU7qx_ERTu-k_J_jVNbqCRo- -F__yqyrmz_NRLs_R09SmMESVmBJD_RIk39Actg2EcLetC9UyoGgGXw0nACUAaaXKEkKOX5JPMT3ESzAMEn4329RudYHf2fieywoXac1LramgI85cJ4dcc9GoMTWNn4k8Be06ey4hT8bfJwFfW8kiPOQ_2lASw7-LO_JX-lpsU4ssOGS84osBJklCcGyy1Iyy5uQS94YgRa3ujrdrd3v3YH5ZqXuXK6cLPof90u8R-QB9EM7VH2GPe_Cw2n4p2zJxsYKgi0Zqn6JtzM39P44EaA8Z0_4HC6iJmJhInKOlzlK0Il8V6PZ8sMgo3-ev7Jsof0mpIZaVCZcjrKJipp2g_lNbwEPi-F5f7MnDH16jH0IWzXIQQyvi98UtoQICUw5VRgwkppwyYjRI21w1B4U0Y4fBJSwW0ZK_zyuezogwFuZD72VurWC7cr87gRGWCH79Un9a8gLozY4vRS6-DjA_yJ_gUejeZ570ZN4S3GPXbUMqIkG-YETcslOLDSZ6W7Mmd3fAwHneS0GcXT8Zb-JBaPhhd-9VvfRcsWDNjAz0I_BIQ8M445omv8qqmrLfnTIzr2igKP_KdVcgKnLtPB-V-ltJubvxFkz-WPsgjCJMw4fA7ukkcFG5NM4zhj6LskTeTAMaEtIbtRkfNQ51ZqLNJBf3LxnyzUvxf-LhNMaThacMfcX7idYFs98i9jsHBEtQeoGu55qnwGvTyP9rc0IbnRScMVAX7SdYpM5BifXqHxAqMezoa4FH5PFkq1MlLOT9K5gpHvbuyRAm9LbCkYNv1m00]--></g></svg>